<svg xmlns="http://www.w3.org/2000/svg" viewBox="0 0 760 420" font-family="ui-monospace, Menlo, Monaco, monospace" font-size="13">
  <style>
    /* Light theme defaults: text falls back to near-black. */
    text { fill: #1f2937; }

.title  { font-size: 16px; font-weight: bold; }
    .note   { font-size: 11px; fill: #6b7280; }
    .label  { font-weight: bold; }
    .mux    { fill: #dbeafe; stroke: #2563eb; }
    .pad    { fill: #fef3c7; stroke: #b45309; }
    .sio    { fill: #ede9fe; stroke: #7c3aed; }
    .pin    { fill: #1f2937; stroke: #111827; }
    .pin-l  { fill: #f9fafb; font-weight: bold; font-size: 11px; }
    .arrow  { stroke: #374151; stroke-width: 1.5; fill: none; }

    @media (prefers-color-scheme: dark) {
      text { fill: #e5e7eb; }
      .note { fill: #9ca3af; }
      .mux { fill: #1e3a8a; }
      .pad { fill: #78350f; }
      .sio { fill: #4c1d95; }
      .pin { fill: #e5e7eb; }
      .pin-l { fill: #161b22; }
    }
  </style>

  <text x="20" y="28" class="title">Anatomy of one GPIO pin</text>
  <text x="20" y="48" class="note">From peripheral signals through the function mux and the pad to the physical pin.</text>

  <!-- Peripheral sources on left -->
  <g transform="translate(20,80)">
    <text x="0" y="-4" class="label">peripheral signals</text>
    <rect x="0" y="0"   width="140" height="26" class="mux" />
    <text x="70" y="18" text-anchor="middle">SIO drive bit</text>
    <rect x="0" y="32"  width="140" height="26" class="mux" />
    <text x="70" y="50" text-anchor="middle">UART TX</text>
    <rect x="0" y="64"  width="140" height="26" class="mux" />
    <text x="70" y="82" text-anchor="middle">I²C SDA</text>
    <rect x="0" y="96"  width="140" height="26" class="mux" />
    <text x="70" y="114" text-anchor="middle">PWM channel</text>
    <rect x="0" y="128" width="140" height="26" class="mux" />
    <text x="70" y="146" text-anchor="middle">PIO output</text>
    <rect x="0" y="160" width="140" height="26" class="mux" />
    <text x="70" y="178" text-anchor="middle">…others…</text>
  </g>

  <!-- Function mux box -->
  <g transform="translate(220,100)">
    <rect x="0" y="0" width="180" height="160" class="mux" rx="6" />
    <text x="90" y="22" text-anchor="middle" class="label">FUNCSEL mux</text>
    <text x="90" y="44" text-anchor="middle" class="note">IO_BANK0.GPIO[n].CTRL</text>
    <text x="90" y="62" text-anchor="middle" class="note">5-bit field selects</text>
    <text x="90" y="80" text-anchor="middle" class="note">one of the inputs</text>
    <text x="90" y="108" text-anchor="middle" class="note">e.g. FUNCSEL = 5 → SIO</text>
    <text x="90" y="126" text-anchor="middle" class="note">FUNCSEL = 2 → UART</text>
    <text x="90" y="144" text-anchor="middle" class="note">FUNCSEL = 6 → PIO0</text>
  </g>

  <!-- PAD box -->
  <g transform="translate(440,100)">
    <rect x="0" y="0" width="180" height="160" class="pad" rx="6" />
    <text x="90" y="22" text-anchor="middle" class="label">PAD</text>
    <text x="90" y="44" text-anchor="middle" class="note">PADS_BANK0.GPIO[n]</text>
    <text x="90" y="68" text-anchor="middle" class="note">ISO bit, output isolate</text>
    <text x="90" y="86" text-anchor="middle" class="note">OD  bit, output disable</text>
    <text x="90" y="104" text-anchor="middle" class="note">IE  bit, input enable</text>
    <text x="90" y="122" text-anchor="middle" class="note">PUE/PDE, pull-up / pull-down</text>
    <text x="90" y="140" text-anchor="middle" class="note">DRIVE, 2/4/8/12 mA</text>
  </g>

  <!-- Physical pin -->
  <g transform="translate(660,160)">
    <circle cx="20" cy="20" r="20" class="pin" />
    <text x="20" y="24" text-anchor="middle" class="pin-l">GP25</text>
  </g>

  <!-- Arrows -->
  <g class="arrow">
    <path d="M160,90 L218,140" />
    <path d="M160,123 L218,158" />
    <path d="M160,155 L218,176" />
    <path d="M160,187 L218,194" />
    <path d="M160,219 L218,212" />
    <path d="M160,251 L218,230" />

    <path d="M400,180 L440,180" />
    <path d="M620,180 L660,180" />

    <polygon points="218,140 210,138 211,146" fill="#374151" />
    <polygon points="218,158 210,154 210,162" fill="#374151" />
    <polygon points="218,176 210,172 210,180" fill="#374151" />
    <polygon points="218,194 210,190 210,198" fill="#374151" />
    <polygon points="218,212 210,208 210,216" fill="#374151" />
    <polygon points="218,230 210,226 210,234" fill="#374151" />
    <polygon points="440,180 432,176 432,184" fill="#374151" />
    <polygon points="660,180 652,176 652,184" fill="#374151" />
  </g>

  <text x="380" y="320" text-anchor="middle" class="note">To drive the LED you must (1) set FUNCSEL = SIO, (2) clear ISO/OD on the pad,</text>
  <text x="380" y="338" text-anchor="middle" class="note">(3) enable the output in SIO_GPIO_OE, then (4) write SIO_GPIO_OUT to drive the level.</text>
</svg>
