<svg xmlns="http://www.w3.org/2000/svg" viewBox="0 0 720 340" font-family="ui-monospace, Menlo, Monaco, monospace" font-size="13">
  <style>
    /* Light theme defaults: text falls back to near-black. */
    text { fill: #1f2937; }

.title  { font-size: 16px; font-weight: bold; }
    .note   { font-size: 11px; fill: #6b7280; }
    .stage  { fill: #dbeafe; stroke: #2563eb; }
    .data   { fill: #dcfce7; stroke: #16a34a; }
    .arrow  { stroke: #374151; stroke-width: 1.5; fill: none; }
    .label  { font-weight: bold; }

    @media (prefers-color-scheme: dark) {
      text { fill: #e5e7eb; }
      .note { fill: #9ca3af; }
      .stage { fill: #1e3a8a; }
      .data { fill: #14532d; }
    }
  </style>

  <text x="20" y="28" class="title">What "execute an instruction" actually means</text>
  <text x="20" y="50" class="note">A simplified view of the CPU stepping through one instruction.</text>

  <!-- four boxes left to right -->
  <g transform="translate(20,80)">
    <rect x="0"   y="0" width="150" height="60" class="stage" rx="6" />
    <text x="75"  y="26" text-anchor="middle" class="label">Fetch</text>
    <text x="75"  y="46" text-anchor="middle" class="note">read 16/32 bits at pc</text>

    <rect x="180" y="0" width="150" height="60" class="stage" rx="6" />
    <text x="255" y="26" text-anchor="middle" class="label">Decode</text>
    <text x="255" y="46" text-anchor="middle" class="note">look up the mnemonic</text>

    <rect x="360" y="0" width="150" height="60" class="stage" rx="6" />
    <text x="435" y="26" text-anchor="middle" class="label">Execute</text>
    <text x="435" y="46" text-anchor="middle" class="note">ALU / memory / branch</text>

    <rect x="540" y="0" width="150" height="60" class="stage" rx="6" />
    <text x="615" y="26" text-anchor="middle" class="label">Advance pc</text>
    <text x="615" y="46" text-anchor="middle" class="note">unless branch wrote it</text>
  </g>

  <!-- arrows -->
  <g class="arrow">
    <path d="M170,110 L180,110" />
    <path d="M330,110 L360,110" />
    <path d="M510,110 L540,110" />
    <polygon points="180,110 172,106 172,114" fill="#374151" />
    <polygon points="360,110 352,106 352,114" fill="#374151" />
    <polygon points="540,110 532,106 532,114" fill="#374151" />
  </g>

  <!-- loop back arrow -->
  <path d="M615,150 L615,200 L75,200 L75,150" class="arrow" />
  <polygon points="75,150 71,158 79,158" fill="#374151" />
  <text x="345" y="222" text-anchor="middle" class="note">repeat — billions of times per second</text>

  <!-- registers panel -->
  <g transform="translate(20,250)">
    <rect x="0" y="0" width="320" height="60" class="data" rx="6" />
    <text x="160" y="26" text-anchor="middle" class="label">CPU registers (r0..r15, flags)</text>
    <text x="160" y="46" text-anchor="middle" class="note">read and written each cycle, on-chip, ~1 cycle latency</text>

    <rect x="350" y="0" width="320" height="60" class="data" rx="6" />
    <text x="510" y="26" text-anchor="middle" class="label">Memory (SRAM, flash, peripherals)</text>
    <text x="510" y="46" text-anchor="middle" class="note">accessed by ldr / str during Execute, slower</text>
  </g>
</svg>
