<svg xmlns="http://www.w3.org/2000/svg" viewBox="0 0 720 600" font-family="ui-monospace, Menlo, Monaco, monospace" font-size="13">
  <style>
    /* Light theme defaults: text falls back to near-black. */
    text { fill: #1f2937; }

.name { font-weight: bold; }
    .role { font-size: 12px; fill: #374151; }
    .preserve-yes { fill: #dcfce7; stroke: #16a34a; }
    .preserve-no  { fill: #fee2e2; stroke: #dc2626; }
    .special      { fill: #dbeafe; stroke: #2563eb; }
    .bitlabel     { font-size: 10px; fill: #6b7280; }
    .title        { font-size: 16px; font-weight: bold; }

    @media (prefers-color-scheme: dark) {
      text { fill: #e5e7eb; }
      .role { fill: #d1d5db; }
      .preserve-yes { fill: #14532d; }
      .preserve-no { fill: #7f1d1d; }
      .special { fill: #1e3a8a; }
      .bitlabel { fill: #9ca3af; }
    }
  </style>

  <text x="20" y="28" class="title">ARM Cortex-M33 register file</text>
  <text x="160" y="56" class="bitlabel">bit 31</text>
  <text x="500" y="56" class="bitlabel" text-anchor="end">bit 0</text>

  <!-- r0-r3: caller-saved (args / return) -->
  <g transform="translate(0,68)">
    <rect x="160" y="0"  width="340" height="24" class="preserve-no" />
    <text x="20"  y="17" class="name">r0</text>
    <text x="60"  y="17" class="role">arg1 / return value</text>
    <text x="510" y="17" class="role">caller-saved</text>

    <rect x="160" y="28" width="340" height="24" class="preserve-no" />
    <text x="20"  y="45" class="name">r1</text>
    <text x="60"  y="45" class="role">arg2 / return high</text>
    <text x="510" y="45" class="role">caller-saved</text>

    <rect x="160" y="56" width="340" height="24" class="preserve-no" />
    <text x="20"  y="73" class="name">r2</text>
    <text x="60"  y="73" class="role">arg3</text>
    <text x="510" y="73" class="role">caller-saved</text>

    <rect x="160" y="84" width="340" height="24" class="preserve-no" />
    <text x="20"  y="101" class="name">r3</text>
    <text x="60"  y="101" class="role">arg4</text>
    <text x="510" y="101" class="role">caller-saved</text>
  </g>

  <!-- r4-r11: callee-saved -->
  <g transform="translate(0,184)">
    <rect x="160" y="0"   width="340" height="24" class="preserve-yes" />
    <text x="20"  y="17"  class="name">r4</text>
    <text x="60"  y="17"  class="role">general purpose</text>
    <text x="510" y="17"  class="role">callee-saved</text>

    <rect x="160" y="28"  width="340" height="24" class="preserve-yes" />
    <text x="20"  y="45"  class="name">r5</text>
    <text x="60"  y="45"  class="role">general purpose</text>
    <text x="510" y="45"  class="role">callee-saved</text>

    <rect x="160" y="56"  width="340" height="24" class="preserve-yes" />
    <text x="20"  y="73"  class="name">r6</text>

    <rect x="160" y="84"  width="340" height="24" class="preserve-yes" />
    <text x="20"  y="101" class="name">r7</text>

    <rect x="160" y="112" width="340" height="24" class="preserve-yes" />
    <text x="20"  y="129" class="name">r8</text>

    <rect x="160" y="140" width="340" height="24" class="preserve-yes" />
    <text x="20"  y="157" class="name">r9</text>

    <rect x="160" y="168" width="340" height="24" class="preserve-yes" />
    <text x="20"  y="185" class="name">r10</text>

    <rect x="160" y="196" width="340" height="24" class="preserve-yes" />
    <text x="20"  y="213" class="name">r11</text>
    <text x="60"  y="213" class="role">general purpose</text>
    <text x="510" y="213" class="role">callee-saved</text>
  </g>

  <!-- r12-r15: special -->
  <g transform="translate(0,420)">
    <rect x="160" y="0"  width="340" height="24" class="preserve-no" />
    <text x="20"  y="17" class="name">r12</text>
    <text x="60"  y="17" class="role">ip — intra-procedure scratch</text>
    <text x="510" y="17" class="role">caller-saved</text>

    <rect x="160" y="28" width="340" height="24" class="special" />
    <text x="20"  y="45" class="name">r13</text>
    <text x="60"  y="45" class="role">sp — stack pointer</text>
    <text x="510" y="45" class="role">special</text>

    <rect x="160" y="56" width="340" height="24" class="special" />
    <text x="20"  y="73" class="name">r14</text>
    <text x="60"  y="73" class="role">lr — link register (return address)</text>
    <text x="510" y="73" class="role">special</text>

    <rect x="160" y="84" width="340" height="24" class="special" />
    <text x="20"  y="101" class="name">r15</text>
    <text x="60"  y="101" class="role">pc — program counter</text>
    <text x="510" y="101" class="role">special</text>
  </g>

  <!-- legend -->
  <g transform="translate(20, 560)">
    <rect x="0"   y="0" width="14" height="14" class="preserve-no"  />
    <text x="20"  y="12" class="role">caller-saved (free to clobber)</text>
    <rect x="220" y="0" width="14" height="14" class="preserve-yes" />
    <text x="240" y="12" class="role">callee-saved (must preserve)</text>
    <rect x="440" y="0" width="14" height="14" class="special"      />
    <text x="460" y="12" class="role">special (sp / lr / pc)</text>
  </g>
</svg>
