<svg xmlns="http://www.w3.org/2000/svg" viewBox="0 0 720 600" font-family="ui-monospace, Menlo, Monaco, monospace" font-size="12">
  <style>
    .title { font-size: 16px; font-weight: bold; }
    .note  { font-size: 11px; fill: #6b7280; }
    .h     { font-weight: bold; }
    .sys   { fill: #fee2e2; stroke: #dc2626; }
    .ext   { fill: #dbeafe; stroke: #2563eb; }
    .sp    { fill: #dcfce7; stroke: #16a34a; }
    .res   { fill: #f3f4f6; stroke: #9ca3af; }
  </style>

  <text x="20" y="28" class="title">Vector table layout (rp-asm)</text>
  <text x="20" y="48" class="note">An array of 32-bit function pointers at the start of the image. VTOR points at it.</text>

  <text x="20" y="76"  class="h">offset</text>
  <text x="100" y="76" class="h">slot</text>
  <text x="180" y="76" class="h">name</text>
  <text x="430" y="76" class="h">rp-asm handler</text>

  <!-- rows -->
  <g transform="translate(20,84)">
    <!-- Slot 0: initial SP -->
    <rect x="0" y="0" width="680" height="24" class="sp" />
    <text x="6"   y="17">0x000</text>
    <text x="80"  y="17">0</text>
    <text x="160" y="17">Initial SP (loaded into r13)</text>
    <text x="410" y="17">_stack_top</text>

    <!-- Slot 1: Reset -->
    <rect x="0" y="26" width="680" height="24" class="sys" />
    <text x="6"   y="43">0x004</text>
    <text x="80"  y="43">1</text>
    <text x="160" y="43">Reset</text>
    <text x="410" y="43">_reset (M33 prologue → main)</text>

    <rect x="0" y="52" width="680" height="24" class="sys" />
    <text x="6"   y="69">0x008</text>
    <text x="80"  y="69">2</text>
    <text x="160" y="69">NMI</text>
    <text x="410" y="69">_halt</text>

    <rect x="0" y="78" width="680" height="24" class="sys" />
    <text x="6"   y="95">0x00C</text>
    <text x="80"  y="95">3</text>
    <text x="160" y="95">HardFault</text>
    <text x="410" y="95">_halt</text>

    <rect x="0" y="104" width="680" height="24" class="sys" />
    <text x="6"   y="121">0x010</text>
    <text x="80"  y="121">4</text>
    <text x="160" y="121">MemManage</text>
    <text x="410" y="121">_halt</text>

    <rect x="0" y="130" width="680" height="24" class="sys" />
    <text x="6"   y="147">0x014</text>
    <text x="80"  y="147">5</text>
    <text x="160" y="147">BusFault</text>
    <text x="410" y="147">_halt</text>

    <rect x="0" y="156" width="680" height="24" class="sys" />
    <text x="6"   y="173">0x018</text>
    <text x="80"  y="173">6</text>
    <text x="160" y="173">UsageFault</text>
    <text x="410" y="173">_halt</text>

    <rect x="0" y="182" width="680" height="24" class="sys" />
    <text x="6"   y="199">0x01C</text>
    <text x="80"  y="199">7</text>
    <text x="160" y="199">SecureFault</text>
    <text x="410" y="199">_halt</text>

    <rect x="0" y="208" width="680" height="24" class="res" />
    <text x="6"   y="225">0x020-0x028</text>
    <text x="80"  y="225">8-10</text>
    <text x="160" y="225">reserved</text>
    <text x="410" y="225">—</text>

    <rect x="0" y="234" width="680" height="24" class="sys" />
    <text x="6"   y="251">0x02C</text>
    <text x="80"  y="251">11</text>
    <text x="160" y="251">SVCall</text>
    <text x="410" y="251">_halt</text>

    <rect x="0" y="260" width="680" height="24" class="sys" />
    <text x="6"   y="277">0x030</text>
    <text x="80"  y="277">12</text>
    <text x="160" y="277">DebugMon</text>
    <text x="410" y="277">_halt</text>

    <rect x="0" y="286" width="680" height="24" class="res" />
    <text x="6"   y="303">0x034</text>
    <text x="80"  y="303">13</text>
    <text x="160" y="303">reserved</text>
    <text x="410" y="303">—</text>

    <rect x="0" y="312" width="680" height="24" class="sys" />
    <text x="6"   y="329">0x038</text>
    <text x="80"  y="329">14</text>
    <text x="160" y="329">PendSV</text>
    <text x="410" y="329">_halt</text>

    <rect x="0" y="338" width="680" height="24" class="sys" />
    <text x="6"   y="355">0x03C</text>
    <text x="80"  y="355">15</text>
    <text x="160" y="355">SysTick</text>
    <text x="410" y="355">_halt</text>

    <!-- External IRQ rows -->
    <rect x="0" y="364" width="680" height="24" class="ext" />
    <text x="6"   y="381">0x040</text>
    <text x="80"  y="381">16</text>
    <text x="160" y="381">External IRQ 0 — TIMER0_IRQ_0</text>
    <text x="410" y="381">patched by nvic_install_handler</text>

    <rect x="0" y="390" width="680" height="24" class="ext" />
    <text x="6"   y="407">0x044</text>
    <text x="80"  y="407">17</text>
    <text x="160" y="407">External IRQ 1 — TIMER0_IRQ_1</text>
    <text x="410" y="407">patched by nvic_install_handler</text>

    <rect x="0" y="416" width="680" height="24" class="ext" />
    <text x="6"   y="433">…</text>
    <text x="80"  y="433">…</text>
    <text x="160" y="433">External IRQs 2..51</text>
    <text x="410" y="433">_halt until patched</text>
  </g>

  <text x="20" y="568" class="note">When IRQ n fires, the CPU loads pc from slot 16 + n. Bit 0 of the loaded value is the Thumb marker — must be 1.</text>
</svg>
